<svg xmlns="http://www.w3.org/2000/svg" viewBox="0 0 299.637 299.637"><path d="M227.658 215.467c-66.716 0-120.772-54.543-120.772-121.858 0-37.633 16.93-71.258 43.494-93.61C69.628 1.574 4.607 67.953 4.607 149.754c0 82.765 66.557 149.884 148.63 149.884 66.556 0 122.87-44.112 141.793-104.9-19.233 13.07-42.427 20.73-67.372 20.73z" fill="#475F6C"/><path d="M150.37 0l-.58.037-2.2 2.556L150.37 0zm12.24 290.273c-82.083 0-148.64-67.12-148.64-149.884 0-39.15 15.01-74.657 39.375-101.325-29.87 27.39-48.738 66.753-48.738 110.688 0 82.765 66.557 149.884 148.63 149.884 43.072 0 81.79-18.54 108.926-48.082-26.35 24.036-61.22 38.718-99.554 38.718z" fill="#425864"/></svg>