<svg xmlns="http://www.w3.org/2000/svg" viewBox="0 0 299.637 299.637"><path d="M74.91 51.5c36.2 0 65.544 29.355 65.544 65.545 0 36.2-29.346 65.545-65.545 65.545S9.363 153.245 9.363 117.045C9.364 80.855 38.7 51.5 74.91 51.5z" fill="#EFC75E"/><path d="M251.62 127.795c-5.974-32.735-34.56-57.568-69.03-57.568-24.213 0-45.562 12.257-58.194 30.9-3.66-1.75-7.697-2.81-12.032-2.81-15.516 0-28.09 12.576-28.09 28.092l.018.233-4.7-.234c-28.438 0-51.5 23.062-51.5 51.5 0 1.74.093 3.435.26 5.13C12.36 185.213 0 198.78 0 215.364c0 18.11 14.673 32.773 32.773 32.773h206c33.625 0 60.864-27.248 60.864-60.864 0-29.205-20.582-53.588-48.017-59.478z" fill="#E4E7E7"/></svg>