<svg xmlns="http://www.w3.org/2000/svg" viewBox="0 0 299.637 299.637"><path d="M110.088 145.764c-30.123 0-54.534-23.868-54.534-53.307 0-16.47 7.64-31.18 19.636-40.957-36.462.684-65.826 29.72-65.826 65.517 0 36.21 30.048 65.574 67.128 65.574 30.048 0 55.48-19.297 64.038-45.9-8.7 5.722-19.168 9.074-30.442 9.074z" fill="#425864"/><path d="M251.62 127.795c-5.974-32.735-34.552-57.568-69.03-57.568-24.213 0-45.562 12.257-58.194 30.9-3.66-1.75-7.697-2.81-12.032-2.81-15.516 0-28.09 12.576-28.09 28.092l.018.233-4.7-.234c-28.438 0-51.5 23.062-51.5 51.5 0 1.74.093 3.435.26 5.13C12.36 185.213 0 198.78 0 215.364c0 18.11 14.673 32.773 32.773 32.773h206c33.625 0 60.864-27.248 60.864-60.864 0-29.205-20.582-53.588-48.017-59.478z" fill="#E4E7E7"/></svg>