<svg xmlns="http://www.w3.org/2000/svg" viewBox="0 0 299.637 299.637"><path d="M154.5 229.41c-7.49 0-14.045 6.554-14.045 14.044v9.364c0 7.49 6.555 14.045 14.045 14.045s14.045-6.555 14.045-14.045v-9.364c0-7.49-6.554-14.045-14.045-14.045zm56.182 0c-7.49 0-14.045 6.554-14.045 14.044v9.364c0 7.49 6.555 14.045 14.045 14.045s14.045-6.555 14.045-14.045v-9.364c0-7.49-6.554-14.045-14.045-14.045zm-112.364 0c-7.49 0-14.045 6.554-14.045 14.044v9.364c0 7.49 6.555 14.045 14.045 14.045s14.045-6.555 14.045-14.045v-9.364c0-7.49-6.554-14.045-14.045-14.045z" fill="#26A6D1"/><path d="M251.882 89.89c-6.555-31.835-34.645-57.117-69.29-57.117-24.346 0-45.883 12.173-58.056 30.9-3.745-1.873-7.49-2.81-12.173-2.81-15.918 0-28.09 12.174-28.09 28.092H79.59c-28.09 0-51.5 23.41-51.5 51.5v4.682C12.173 147.01 0 161.055 0 177.91c0 17.79 14.982 32.772 32.773 32.772h206c33.71 0 60.864-27.155 60.864-60.864 0-29.027-20.6-53.373-47.755-59.927z" fill="#E4E7E7"/></svg>