<svg xmlns="http://www.w3.org/2000/svg" viewBox="0 0 299.637 299.637"><path d="M101.127 117.982c-29.964 0-54.31-23.41-54.31-53.373-.935-16.856 6.556-31.837 18.728-41.2C29.027 24.344 0 53.372 0 88.954 0 125.473 29.964 154.5 67.418 154.5c29.964 0 55.245-19.664 63.673-45.882-8.426 5.618-18.726 9.364-29.963 9.364z" fill="#425864"/><path d="M154.5 238.773c-7.49 0-14.045 6.555-14.045 14.045v9.364c0 7.49 6.555 14.045 14.045 14.045s14.045-6.555 14.045-14.045v-9.364c0-7.49-6.554-14.045-14.045-14.045zm56.182 0c-7.49 0-14.045 6.555-14.045 14.045v9.364c0 7.49 6.555 14.045 14.045 14.045s14.045-6.555 14.045-14.045v-9.364c0-7.49-6.554-14.045-14.045-14.045zm-112.364 0c-7.49 0-14.045 6.555-14.045 14.045v9.364c0 7.49 6.555 14.045 14.045 14.045s14.045-6.555 14.045-14.045v-9.364c0-7.49-6.554-14.045-14.045-14.045z" fill="#26A6D1"/><path d="M251.882 99.255c-6.555-31.836-34.645-57.118-69.29-57.118-24.346 0-45.883 12.173-58.056 30.9-3.745-1.873-7.49-2.81-12.173-2.81-15.918 0-28.09 12.174-28.09 28.092H79.59c-28.09 0-51.5 23.408-51.5 51.5v4.68C12.173 156.374 0 170.42 0 187.274c0 17.79 14.982 32.773 32.773 32.773h206c33.71 0 60.864-27.155 60.864-60.864 0-29.027-20.6-53.373-47.755-59.927z" fill="#E4E7E7"/></svg>