<svg xmlns="http://www.w3.org/2000/svg" viewBox="0 0 299.637 299.637"><path d="M251.62 90.34c-5.974-32.735-34.552-57.568-69.03-57.568-24.213 0-45.562 12.257-58.194 30.9-3.652-1.75-7.697-2.81-12.032-2.81-15.516 0-28.09 12.576-28.09 28.092l.018.234-4.7-.234c-28.438 0-51.5 23.063-51.5 51.5 0 1.742.093 3.436.252 5.13C12.36 147.76 0 161.328 0 177.91c0 18.11 14.673 32.773 32.773 32.773h206c33.615 0 60.864-27.248 60.864-60.864 0-29.206-20.573-53.58-48.017-59.48z" fill="#E4E7E7"/><path d="M206 173.622l-46.416-.197 27.876-56.378h-65.555l-37.632 93.505h47.67l-19.664 56.313L206 173.622z" fill="#EFC75E"/></svg>