<svg xmlns="http://www.w3.org/2000/svg" viewBox="0 0 299.637 299.637"><path d="M251.62 90.34c-5.974-32.735-34.552-57.568-69.03-57.568-24.213 0-45.562 12.248-58.194 30.9-3.652-1.742-7.697-2.81-12.032-2.81-15.516 0-28.09 12.586-28.09 28.092l.018.234-4.7-.234c-28.438 0-51.5 23.063-51.5 51.5 0 1.75.093 3.436.252 5.14C12.36 147.77 0 161.335 0 177.91c0 18.108 14.673 32.772 32.773 32.772h206c33.615 0 60.864-27.248 60.864-60.864 0-29.214-20.573-53.57-48.017-59.478z" fill="#E4E7E7"/><path d="M103 191.955h34.45l-22.4-22.388c-3.492-3.493-3.492-9.167 0-12.66s9.16-3.493 12.65 0l22.118 22.117v-33.887c0-5.178 4.186-9.364 9.364-9.364s9.364 4.186 9.364 9.364v34.177l22.407-22.407c3.493-3.493 9.167-3.493 12.66 0 3.493 3.493 3.493 9.167 0 12.66l-22.407 22.388h34.16c5.177 0 9.363 4.204 9.363 9.364 0 5.177-4.187 9.363-9.365 9.363h-33.887l22.117 22.126c3.493 3.492 3.493 9.147 0 12.66-3.493 3.473-9.158 3.473-12.65 0l-22.398-22.427V257.5c0 5.178-4.186 9.364-9.364 9.364s-9.364-4.186-9.364-9.364v-34.15L127.7 245.47c-3.493 3.474-9.158 3.474-12.65 0-3.493-3.51-3.493-9.167 0-12.66l22.117-22.126H103c-5.178 0-9.364-4.186-9.364-9.364 0-5.16 4.186-9.363 9.364-9.363zm56.182 18.727c5.178 0 9.364-4.186 9.364-9.364 0-5.16-4.186-9.364-9.364-9.364s-9.364 4.204-9.364 9.364c0 5.17 4.186 9.364 9.364 9.364z" fill="#3CAED6"/></svg>