<svg xmlns="http://www.w3.org/2000/svg" viewBox="0 0 299.637 299.637"><path d="M149.818 0s112.364 125.22 112.364 187.273c0 62.062-50.31 112.364-112.364 112.364S37.455 249.335 37.455 187.273C37.455 125.22 149.818 0 149.818 0z" fill="#3CAED6"/><path d="M196.58 149.818c-10.365 0-18.782 8.41-18.782 18.783 0 10.376 8.41 18.803 18.783 18.803 10.375 0 18.784-8.427 18.784-18.802 0-10.373-8.408-18.782-18.783-18.782z" fill="#63BFDE"/><path d="M159.182 290.273c-62.053 0-112.364-50.3-112.364-112.364 0-51.473 77.25-146.327 103.618-177.217L149.818 0S37.454 125.22 37.454 187.273c0 62.062 50.31 112.364 112.364 112.364 33.41 0 63.336-14.663 83.908-37.82-19.842 17.65-45.9 28.456-74.544 28.456z" fill="#369DC0"/></svg>