<svg xmlns="http://www.w3.org/2000/svg" viewBox="0 0 299.636 299.636"><path d="M173.227 166.308V46.818C173.227 20.965 152.27 0 126.407 0S79.59 20.965 79.59 46.818v119.49c-17.107 13.727-28.09 34.776-28.09 58.42 0 41.368 33.54 74.908 74.908 74.908s74.91-33.54 74.91-74.91c0-23.633-10.983-44.69-28.09-58.418zM201.317 65.545h37.455c5.178 0 9.364-4.186 9.364-9.364s-4.186-9.363-9.364-9.363h-37.455c-5.178 0-9.364 4.186-9.364 9.364s4.186 9.365 9.364 9.365zm37.455 18.728h-37.455c-5.178 0-9.364 4.195-9.364 9.364 0 5.178 4.186 9.364 9.364 9.364h37.455c5.178 0 9.364-4.185 9.364-9.363 0-5.16-4.185-9.364-9.364-9.364zm0 37.454h-37.455c-5.178 0-9.364 4.195-9.364 9.364 0 5.18 4.186 9.365 9.364 9.365h37.455c5.178 0 9.364-4.186 9.364-9.364 0-5.158-4.185-9.363-9.364-9.363z" fill="#E4E7E7"/><path d="M154.5 176.13V46.818c0-15.516-12.586-28.09-28.092-28.09s-28.09 12.575-28.09 28.09V176.13c-16.77 9.72-28.092 27.82-28.092 48.597 0 31.022 25.16 56.182 56.182 56.182s56.182-25.16 56.182-56.183c0-20.778-11.31-38.878-28.09-48.597z" fill="#CB4E44"/><path d="M154.5 176.13V46.818c0-15.516-12.586-28.09-28.092-28.09s-28.09 12.575-28.09 28.09V176.13c-16.77 9.72-28.092 27.82-28.092 48.597 0 31.022 25.16 56.182 56.182 56.182s56.182-25.16 56.182-56.183c0-20.778-11.31-38.878-28.09-48.597zm-28.092 90.734c-23.23 0-42.136-18.905-42.136-42.136 0-14.944 8.08-28.915 21.087-36.453l7.003-4.054V46.82c0-7.744 6.302-14.045 14.045-14.045s14.045 6.302 14.045 14.045V184.22l7.004 4.064c13.006 7.538 21.087 21.5 21.087 36.453 0 23.23-18.905 42.127-42.136 42.127z" fill="#FFF"/></svg>