<svg xmlns="http://www.w3.org/2000/svg" viewBox="0 0 299.637 299.637"><path d="M109.555 103.936c-29.964 0-54.31-23.41-54.31-53.373 0-16.855 7.492-31.836 19.665-41.2C38.39 10.3 9.364 39.327 9.364 74.91c0 36.517 29.964 65.544 67.418 65.544 29.964 0 55.245-19.664 63.673-45.882-8.428 5.62-19.664 9.364-30.9 9.364z" fill="#425864"/><path d="M251.882 85.21c-6.555-31.837-34.645-57.12-69.29-57.12-24.346 0-45.883 12.174-58.056 30.9-3.745-1.872-7.49-2.808-12.173-2.808-15.918 0-28.09 12.173-28.09 28.09H79.59c-28.09 0-51.5 23.41-51.5 51.5v4.683C12.173 142.327 0 156.373 0 173.227 0 191.017 14.982 206 32.773 206h206c33.71 0 60.864-27.155 60.864-60.864 0-29.027-20.6-53.372-47.755-59.927z" fill="#E4E7E7"/><path d="M196.636 131.09c-6.555 0-9.364 3.746-9.364 9.365s2.81 9.364 9.364 9.364c10.3 0 18.727 10.3 18.727 18.726s-8.427 18.727-18.727 18.727H65.546V206h131.09c24.345 0 37.455-16.855 37.455-37.455s-13.108-37.454-37.454-37.454zm-37.454 84.274H65.545v18.727h93.636c10.3 0 18.728 10.3 18.728 18.728s-8.427 18.727-18.727 18.727c-6.554 0-9.363 3.745-9.363 9.364s2.81 9.363 9.364 9.363c24.346 0 37.456-16.855 37.456-37.455s-13.11-37.454-37.454-37.454z" fill="#3CAFD6"/></svg>