<svg xmlns="http://www.w3.org/2000/svg" viewBox="0 0 512 512"><path d="M256 0c-52.636 0-112.814 81.754-112.814 182.237 0 129.83 105.673 318.898 109.433 326.89.86 1.83 2.09 2.872 3.38 2.872 2.46 0 4.81-1.043 6.452-2.873 7.178-7.992 175.784-197.06 175.784-326.89C438.236 81.754 356.488 0 256 0zm0 277.695c-52.72 0-95.458-42.737-95.458-95.458S203.28 86.78 256 86.78s95.458 42.737 95.458 95.458S308.72 277.695 256 277.695z" fill="#FF6469"/><path d="M252.62 509.128c-3.76-7.992-109.433-197.06-109.433-326.89C143.187 81.754 203.364 0 256 0 155.512 0 73.763 81.754 73.763 182.237c0 129.83 168.606 318.898 175.784 326.89C251.19 510.957 253.54 512 256 512c-1.29 0-2.52-1.042-3.38-2.872z" fill="#D2555F"/></svg>